<svg width="17" height="15" viewBox="0 0 17 15" fill="none" xmlns="http://www.w3.org/2000/svg">
<g id="Icon">
<path id="Vector" d="M10.375 8.75H13.5M3.27412 10.625C3.41283 10.0883 3.72591 9.61295 4.16415 9.27356C4.60239 8.93418 5.14097 8.75001 5.69526 8.75M5.69526 8.75C6.24955 8.74998 6.78814 8.93411 7.22641 9.27346C7.66467 9.61281 7.97778 10.0881 8.11653 10.6248M5.69526 8.75C6.73079 8.75 7.57035 7.91053 7.57035 6.875C7.57035 5.83946 6.73088 5 5.69535 5C4.65981 5 3.82035 5.83946 3.82035 6.875C3.82035 7.91053 4.65973 8.75 5.69526 8.75ZM10.375 6.25H13.5M1.625 1.25H15.375C15.7202 1.25 16 1.52982 16 1.875V13.125C16 13.4702 15.7202 13.75 15.375 13.75H1.625C1.27982 13.75 1 13.4702 1 13.125V1.875C1 1.52982 1.27982 1.25 1.625 1.25Z" stroke="#5E718D" stroke-linecap="round" stroke-linejoin="round"/>
</g>
</svg>
