<svg width="40" height="40" viewBox="0 0 40 40" fill="none" xmlns="http://www.w3.org/2000/svg">
<g id="Iconsax/Bold/notificationbing">
<path id="Vector" d="M33.6502 23.4332L31.7668 20.2998C31.3502 19.6165 30.9835 18.2998 30.9835 17.4998V14.3832C30.9835 8.33317 26.0668 3.4165 20.0335 3.4165C13.9835 3.43317 9.06684 8.33317 9.06684 14.3832V17.4832C9.06684 18.2832 8.70018 19.5998 8.30018 20.2832L6.41684 23.4165C5.70018 24.6332 5.53351 26.0165 5.98351 27.2165C6.43351 28.4332 7.45018 29.3998 8.78351 29.8332C10.5835 30.4332 12.4002 30.8665 14.2502 31.1832C14.4335 31.2165 14.6168 31.2332 14.8002 31.2665L15.5335 31.3665C15.9668 31.4332 16.4002 31.4832 16.8502 31.5165C18.9511 31.7146 21.0659 31.7146 23.1668 31.5165C23.5502 31.4832 23.9335 31.4498 24.3002 31.3998C24.6002 31.3665 24.9002 31.3332 25.2002 31.2832C25.3835 31.2665 25.5668 31.2332 25.7502 31.1998C27.6168 30.8998 29.4668 30.4332 31.2668 29.8332C31.8895 29.625 32.458 29.2806 32.9308 28.8251C33.4036 28.3696 33.7689 27.8143 34.0002 27.1998C34.4668 25.9498 34.3335 24.5832 33.6502 23.4332ZM21.2502 16.6665C21.2502 17.0024 21.1167 17.3246 20.8792 17.5622C20.6416 17.7997 20.3194 17.9332 19.9835 17.9332C19.6476 17.9332 19.3254 17.7997 19.0878 17.5622C18.8503 17.3246 18.7168 17.0024 18.7168 16.6665V11.4998C18.7168 11.1639 18.8503 10.8417 19.0878 10.6042C19.3254 10.3666 19.6476 10.2332 19.9835 10.2332C20.3194 10.2332 20.6416 10.3666 20.8792 10.6042C21.1167 10.8417 21.2502 11.1639 21.2502 11.4998V16.6665ZM24.7168 33.3498C24.3664 34.3201 23.7256 35.1589 22.8818 35.7523C22.0379 36.3457 21.0318 36.6649 20.0002 36.6665C18.6835 36.6665 17.3835 36.1332 16.4668 35.1832C15.9335 34.6832 15.5335 34.0165 15.3002 33.3332C15.5168 33.3665 15.7335 33.3832 15.9668 33.4165C16.3502 33.4665 16.7502 33.5165 17.1502 33.5498C18.1002 33.6332 19.0668 33.6832 20.0335 33.6832C20.9835 33.6832 21.9335 33.6332 22.8668 33.5498C23.2168 33.5165 23.5668 33.4998 23.9002 33.4498L24.7168 33.3498Z" fill="white"/>
</g>
</svg>
