<svg width="15" height="17" viewBox="0 0 15 17" fill="none" xmlns="http://www.w3.org/2000/svg">
<g id="Icon">
<path id="Vector" d="M7.49951 12V13.875M7.49951 12C8.36246 12 9.06201 11.3004 9.06201 10.4375C9.06201 9.57456 8.36246 8.875 7.49951 8.875C6.63657 8.875 5.93701 9.57456 5.93701 10.4375C5.93701 11.3004 6.63657 12 7.49951 12ZM4.68701 6.375V3.5625C4.68701 2.81658 4.98333 2.10121 5.51077 1.57376C6.03822 1.04632 6.75359 0.75 7.49951 0.75C8.24543 0.75 8.9608 1.04632 9.48825 1.57376C10.0157 2.10121 10.312 2.81658 10.312 3.5625V6.375M1.24951 6.375H13.7495C14.0947 6.375 14.3745 6.65482 14.3745 7V15.75C14.3745 16.0952 14.0947 16.375 13.7495 16.375H1.24951C0.904334 16.375 0.624512 16.0952 0.624512 15.75V7C0.624512 6.65482 0.904334 6.375 1.24951 6.375Z" stroke="#5E718D" stroke-linecap="round" stroke-linejoin="round"/>
</g>
</svg>
