<svg width="17" height="16" viewBox="0 0 17 16" fill="none" xmlns="http://www.w3.org/2000/svg">
<g id="Icon">
<path id="Vector" d="M0.487958 15.1241C0.349818 15.3632 0.431667 15.6691 0.670773 15.8072C0.90988 15.9453 1.2157 15.8635 1.35384 15.6244L0.487958 15.1241ZM15.646 15.6245C15.7841 15.8636 16.09 15.9455 16.3291 15.8074C16.5682 15.6692 16.65 15.3634 16.5119 15.1243L15.646 15.6245ZM1.35384 15.6244C2.07835 14.3703 3.12012 13.329 4.37449 12.6051L3.87462 11.739C2.46826 12.5506 1.30026 13.7181 0.487958 15.1241L1.35384 15.6244ZM4.37449 12.6051C5.62887 11.8811 7.05167 11.5 8.49997 11.5L8.49998 10.5C6.87619 10.5 5.28099 10.9273 3.87462 11.739L4.37449 12.6051ZM8.49997 11.5C9.94827 11.5 11.3711 11.8812 12.6254 12.6051L13.1253 11.7391C11.719 10.9273 10.1238 10.5 8.49998 10.5L8.49997 11.5ZM12.6254 12.6051C13.8798 13.3291 14.9215 14.3705 15.646 15.6245L16.5119 15.1243C15.6996 13.7183 14.5317 12.5508 13.1253 11.7391L12.6254 12.6051ZM12.9999 6C12.9999 8.48529 10.9852 10.5 8.49997 10.5V11.5C11.5375 11.5 13.9999 9.03755 13.9999 6H12.9999ZM8.49997 10.5C6.01468 10.5 3.99988 8.48527 3.99988 6H2.99988C2.99988 9.03758 5.46242 11.5 8.49997 11.5V10.5ZM3.99988 6C3.99988 3.51472 6.0146 1.5 8.49988 1.5V0.5C5.46232 0.5 2.99988 2.96243 2.99988 6H3.99988ZM8.49988 1.5C10.9852 1.5 12.9999 3.51472 12.9999 6H13.9999C13.9999 2.96243 11.5374 0.5 8.49988 0.5V1.5Z" fill="#5E718D"/>
</g>
</svg>
