<svg width="16" height="15" viewBox="0 0 16 15" fill="none" xmlns="http://www.w3.org/2000/svg">
<g id="Icon">
<path id="Vector" d="M1.95923 1.375H14.0411C14.1501 1.375 14.2567 1.40665 14.348 1.46611C14.4394 1.52557 14.5114 1.61028 14.5555 1.70994C14.5996 1.8096 14.6138 1.91991 14.5964 2.02748C14.5789 2.13505 14.5306 2.23524 14.4573 2.31588L9.83395 7.40159C9.73982 7.50513 9.68767 7.64004 9.68767 7.77997V11.7615C9.68767 11.8541 9.66481 11.9452 9.62111 12.0269C9.57741 12.1085 9.51424 12.1781 9.43719 12.2295L7.18719 13.7295C7.10247 13.786 7.00402 13.8184 6.90233 13.8233C6.80063 13.8282 6.69951 13.8054 6.60975 13.7574C6.51998 13.7094 6.44494 13.6379 6.39262 13.5505C6.3403 13.4632 6.31267 13.3633 6.31267 13.2615V7.77997C6.31267 7.64004 6.26051 7.50513 6.16638 7.40159L1.54301 2.31588C1.46971 2.23524 1.42141 2.13505 1.40397 2.02748C1.38654 1.91991 1.40073 1.8096 1.44481 1.70994C1.4889 1.61028 1.56098 1.52557 1.65231 1.46611C1.74363 1.40665 1.85026 1.375 1.95923 1.375Z" stroke="#1B4DFF" stroke-width="1.5" stroke-linecap="round" stroke-linejoin="round"/>
</g>
</svg>
