<svg width="24" height="24" viewBox="0 0 24 24" fill="none" xmlns="http://www.w3.org/2000/svg">
<g id="Iconsax/Bold/shopadd">
<path id="Vector" d="M7.80001 22.1483C5.15001 22.1483 2.99001 19.9983 2.99001 17.3383V14.4983C2.99025 14.3439 3.0277 14.1919 3.0992 14.0551C3.17069 13.9183 3.27412 13.8008 3.40071 13.7125C3.5273 13.6241 3.67332 13.5676 3.82639 13.5478C3.97945 13.5279 4.13506 13.5452 4.28001 13.5983C4.54001 13.6883 4.80001 13.7483 5.07001 13.7883C5.19001 13.8083 5.31001 13.8283 5.43001 13.8283C5.58001 13.8483 5.74001 13.8583 5.89001 13.8583C7.00001 13.8583 8.10001 13.4483 8.97001 12.7383C9.80001 13.4483 10.87 13.8583 12.01 13.8583C13.15 13.8583 14.21 13.4683 15.04 12.7483C15.9 13.4483 16.98 13.8583 18.08 13.8583C18.25 13.8583 18.43 13.8483 18.59 13.8283C18.71 13.8183 18.81 13.8083 18.92 13.7883C19.22 13.7483 19.49 13.6683 19.76 13.5783C19.9038 13.5292 20.0572 13.515 20.2076 13.5368C20.358 13.5585 20.5011 13.6157 20.6251 13.7036C20.7491 13.7914 20.8505 13.9075 20.9208 14.0422C20.9912 14.1769 21.0287 14.3263 21.03 14.4783V17.3383C21.03 19.9883 18.88 22.1483 16.22 22.1483H7.80001Z" fill="#3D4A5C"/>
<path id="Vector_2" d="M21.98 8.59156L21.7 5.93156C21.3 3.03156 19.98 1.85156 17.16 1.85156H6.82C4.00001 1.85156 2.69 3.03156 2.28 5.96156L2.02 8.60156C1.92 9.63156 2.2 10.6316 2.81 11.4116C3.54 12.3616 4.66 12.9016 5.91 12.9016C7.12 12.9016 8.28 12.2916 9.01 11.3216C9.66001 12.2916 10.78 12.9016 12.02 12.9016C13.26 12.9016 14.35 12.3216 15.01 11.3616C15.75 12.3116 16.89 12.9016 18.09 12.9016C19.37 12.9016 20.52 12.3316 21.24 11.3316C21.82 10.5616 22.08 9.59156 21.98 8.59156ZM13.5 7.73156H12.75V8.51156C12.75 8.71047 12.671 8.90124 12.5303 9.04189C12.3897 9.18254 12.1989 9.26156 12 9.26156C11.8011 9.26156 11.6103 9.18254 11.4697 9.04189C11.329 8.90124 11.25 8.71047 11.25 8.51156V7.73156H10.5C10.3011 7.73156 10.1103 7.65254 9.96968 7.51189C9.82902 7.37124 9.75 7.18047 9.75 6.98156C9.75 6.78265 9.82902 6.59188 9.96968 6.45123C10.1103 6.31058 10.3011 6.23156 10.5 6.23156H11.25V5.52156C11.25 5.11156 11.59 4.77156 12 4.77156C12.41 4.77156 12.75 5.11156 12.75 5.52156V6.23156H13.5C13.6989 6.23156 13.8897 6.31058 14.0303 6.45123C14.171 6.59188 14.25 6.78265 14.25 6.98156C14.25 7.18047 14.171 7.37124 14.0303 7.51189C13.8897 7.65254 13.6989 7.73156 13.5 7.73156Z" fill="#3D4A5C"/>
</g>
</svg>
