<svg width="26" height="26" viewBox="0 0 26 26" fill="none" xmlns="http://www.w3.org/2000/svg">
<g id="ei:trash">
<path id="Vector" d="M10.4002 9.36016H11.4402V17.6802H10.4002V9.36016ZM12.4802 9.36016H13.5202V17.6802H12.4802V9.36016ZM14.5602 9.36016H15.6002V17.6802H14.5602V9.36016ZM6.24023 6.24016H19.7602V7.28016H6.24023V6.24016ZM15.6002 6.24016H14.5602V5.72016C14.5602 5.40816 14.3522 5.20016 14.0402 5.20016H11.9602C11.6482 5.20016 11.4402 5.40816 11.4402 5.72016V6.24016H10.4002V5.72016C10.4002 4.83616 11.0762 4.16016 11.9602 4.16016H14.0402C14.9242 4.16016 15.6002 4.83616 15.6002 5.72016V6.24016Z" fill="black"/>
<path id="Vector_2" d="M16.1193 20.799H9.8793C9.0473 20.799 8.3193 20.123 8.2153 19.291L7.2793 6.81103L8.3193 6.70703L9.2553 19.187C9.2553 19.499 9.5673 19.759 9.8793 19.759H16.1193C16.4313 19.759 16.6913 19.499 16.7433 19.187L17.6793 6.70703L18.7193 6.81103L17.7833 19.291C17.6793 20.123 16.9513 20.799 16.1193 20.799Z" fill="black"/>
</g>
</svg>
