<svg width="24" height="24" viewBox="0 0 24 24" fill="none" xmlns="http://www.w3.org/2000/svg">
<g id="Iconsax/Bold/home3">
<path id="Vector" d="M20.8598 8.36985L13.9298 2.82985C12.8598 1.96985 11.1298 1.96985 10.0698 2.81985L3.13978 8.36985C2.35978 8.98985 1.85978 10.2998 2.02978 11.2798L3.35978 19.2398C3.59978 20.6598 4.95978 21.8098 6.39978 21.8098H17.5998C19.0298 21.8098 20.3998 20.6498 20.6398 19.2398L21.9698 11.2798C22.1298 10.2998 21.6298 8.98985 20.8598 8.36985ZM11.9998 15.4998C11.3367 15.4998 10.7009 15.2365 10.232 14.7676C9.76317 14.2988 9.49978 13.6629 9.49978 12.9998C9.49978 12.3368 9.76317 11.7009 10.232 11.2321C10.7009 10.7632 11.3367 10.4998 11.9998 10.4998C12.6628 10.4998 13.2987 10.7632 13.7675 11.2321C14.2364 11.7009 14.4998 12.3368 14.4998 12.9998C14.4998 13.6629 14.2364 14.2988 13.7675 14.7676C13.2987 15.2365 12.6628 15.4998 11.9998 15.4998Z" fill="#0F3CD9"/>
</g>
</svg>
