<svg width="24" height="24" viewBox="0 0 24 24" fill="none" xmlns="http://www.w3.org/2000/svg">
<g id="Iconsax/Bold/shopadd">
<path id="Vector" d="M7.80023 22.1478C5.15023 22.1478 2.99023 19.9978 2.99023 17.3378V14.4978C2.99048 14.3434 3.02793 14.1914 3.09943 14.0546C3.17092 13.9178 3.27435 13.8003 3.40094 13.712C3.52753 13.6237 3.67355 13.5672 3.82662 13.5473C3.97968 13.5274 4.13529 13.5447 4.28023 13.5978C4.54023 13.6878 4.80023 13.7478 5.07023 13.7878C5.19023 13.8078 5.31023 13.8278 5.43023 13.8278C5.58023 13.8478 5.74023 13.8578 5.89023 13.8578C7.00023 13.8578 8.10023 13.4478 8.97023 12.7378C9.80023 13.4478 10.8702 13.8578 12.0102 13.8578C13.1502 13.8578 14.2102 13.4678 15.0402 12.7478C15.9002 13.4478 16.9802 13.8578 18.0802 13.8578C18.2502 13.8578 18.4302 13.8478 18.5902 13.8278C18.7102 13.8178 18.8102 13.8078 18.9202 13.7878C19.2202 13.7478 19.4902 13.6678 19.7602 13.5778C19.9041 13.5287 20.0575 13.5145 20.2079 13.5363C20.3583 13.558 20.5014 13.6152 20.6253 13.7031C20.7493 13.791 20.8507 13.907 20.9211 14.0417C20.9915 14.1764 21.0289 14.3258 21.0302 14.4778V17.3378C21.0302 19.9878 18.8802 22.1478 16.2202 22.1478H7.80023Z" fill="#0F3CD9"/>
<path id="Vector_2" d="M21.9799 8.59205L21.6999 5.93205C21.2999 3.03205 19.9799 1.85205 17.1599 1.85205H6.81985C3.99985 1.85205 2.68985 3.03205 2.27985 5.96205L2.01985 8.60205C1.91985 9.63205 2.19985 10.6321 2.80985 11.4121C3.53985 12.3621 4.65985 12.9021 5.90985 12.9021C7.11985 12.9021 8.27985 12.2921 9.00985 11.3221C9.65985 12.2921 10.7799 12.9021 12.0199 12.9021C13.2599 12.9021 14.3499 12.3221 15.0099 11.3621C15.7499 12.3121 16.8899 12.9021 18.0899 12.9021C19.3699 12.9021 20.5199 12.3321 21.2399 11.3321C21.8199 10.562 22.0799 9.59205 21.9799 8.59205ZM13.4999 7.73205H12.7499V8.51205C12.7499 8.71096 12.6708 8.90173 12.5302 9.04238C12.3895 9.18303 12.1988 9.26205 11.9999 9.26205C11.8009 9.26205 11.6102 9.18303 11.4695 9.04238C11.3289 8.90173 11.2499 8.71096 11.2499 8.51205V7.73205H10.4999C10.3009 7.73205 10.1102 7.65303 9.96952 7.51238C9.82887 7.37173 9.74985 7.18096 9.74985 6.98205C9.74985 6.78314 9.82887 6.59237 9.96952 6.45172C10.1102 6.31107 10.3009 6.23205 10.4999 6.23205H11.2499V5.52205C11.2499 5.11205 11.5899 4.77205 11.9999 4.77205C12.4099 4.77205 12.7499 5.11205 12.7499 5.52205V6.23205H13.4999C13.6988 6.23205 13.8895 6.31107 14.0302 6.45172C14.1708 6.59237 14.2499 6.78314 14.2499 6.98205C14.2499 7.18096 14.1708 7.37173 14.0302 7.51238C13.8895 7.65303 13.6988 7.73205 13.4999 7.73205Z" fill="#0F3CD9"/>
</g>
</svg>
