<svg width="188" height="140" viewBox="0 0 188 140" fill="none" xmlns="http://www.w3.org/2000/svg">
<ellipse cx="104.727" cy="55.0648" rx="2.16843" ry="2.03261" fill="#279AF1"/>
<ellipse cx="104.727" cy="65.8588" rx="2.16843" ry="2.03261" fill="#279AF1"/>
<ellipse cx="104.727" cy="76.6527" rx="2.16843" ry="2.0326" fill="#279AF1"/>
<ellipse cx="104.727" cy="87.4467" rx="2.16843" ry="2.03261" fill="#279AF1"/>
<ellipse cx="116.243" cy="55.0648" rx="2.16843" ry="2.03261" fill="#279AF1"/>
<ellipse cx="116.243" cy="65.8588" rx="2.16843" ry="2.03261" fill="#279AF1"/>
<ellipse cx="116.243" cy="76.6527" rx="2.16843" ry="2.0326" fill="#279AF1"/>
<ellipse cx="116.243" cy="87.4467" rx="2.16843" ry="2.03261" fill="#279AF1"/>
<ellipse cx="127.758" cy="55.0648" rx="2.16843" ry="2.03261" fill="#279AF1"/>
<ellipse cx="127.758" cy="65.8588" rx="2.16843" ry="2.03261" fill="#279AF1"/>
<ellipse cx="127.758" cy="76.6527" rx="2.16843" ry="2.03261" fill="#279AF1"/>
<ellipse cx="127.758" cy="87.4467" rx="2.16843" ry="2.0326" fill="#279AF1"/>
<ellipse cx="139.274" cy="55.0648" rx="2.16843" ry="2.03261" fill="#279AF1"/>
<ellipse cx="139.274" cy="65.8588" rx="2.16843" ry="2.03261" fill="#279AF1"/>
<ellipse cx="139.274" cy="76.6527" rx="2.16843" ry="2.03261" fill="#279AF1"/>
<ellipse cx="139.274" cy="87.4467" rx="2.16843" ry="2.0326" fill="#279AF1"/>
<ellipse cx="150.789" cy="55.0648" rx="2.16843" ry="2.03261" fill="#279AF1"/>
<ellipse cx="150.789" cy="65.8588" rx="2.16843" ry="2.03261" fill="#279AF1"/>
<ellipse cx="150.789" cy="76.6527" rx="2.16843" ry="2.03261" fill="#279AF1"/>
<ellipse cx="150.789" cy="87.4467" rx="2.16843" ry="2.0326" fill="#279AF1"/>
<ellipse cx="162.304" cy="55.0648" rx="2.16843" ry="2.03261" fill="#279AF1"/>
<ellipse cx="162.304" cy="65.8588" rx="2.16843" ry="2.03261" fill="#279AF1"/>
<ellipse cx="162.304" cy="76.6527" rx="2.16843" ry="2.03261" fill="#279AF1"/>
<ellipse cx="162.304" cy="87.4467" rx="2.16843" ry="2.0326" fill="#279AF1"/>
<ellipse cx="173.817" cy="55.0648" rx="2.16843" ry="2.03261" fill="#279AF1"/>
<ellipse cx="173.817" cy="65.8588" rx="2.16843" ry="2.03261" fill="#279AF1"/>
<ellipse cx="173.817" cy="76.6527" rx="2.16843" ry="2.0326" fill="#279AF1"/>
<ellipse cx="173.817" cy="87.4467" rx="2.16843" ry="2.03261" fill="#279AF1"/>
<ellipse cx="185.332" cy="55.0648" rx="2.16843" ry="2.03261" fill="#279AF1"/>
<ellipse cx="185.332" cy="65.8588" rx="2.16843" ry="2.03261" fill="#279AF1"/>
<ellipse cx="185.332" cy="76.6527" rx="2.16843" ry="2.0326" fill="#279AF1"/>
<ellipse cx="185.332" cy="87.4467" rx="2.16843" ry="2.03261" fill="#279AF1"/>
<ellipse cx="21.5786" cy="11.3949" rx="2.16843" ry="2.03261" fill="#279AF1"/>
<ellipse cx="21.5786" cy="22.1889" rx="2.16843" ry="2.03261" fill="#279AF1"/>
<ellipse cx="21.5786" cy="32.9828" rx="2.16843" ry="2.03261" fill="#279AF1"/>
<ellipse cx="21.5786" cy="43.7767" rx="2.16843" ry="2.03261" fill="#279AF1"/>
<ellipse cx="33.0942" cy="11.3949" rx="2.16843" ry="2.03261" fill="#279AF1"/>
<ellipse cx="33.0942" cy="22.1889" rx="2.16843" ry="2.03261" fill="#279AF1"/>
<ellipse cx="33.0942" cy="32.9828" rx="2.16843" ry="2.03261" fill="#279AF1"/>
<ellipse cx="33.0942" cy="43.7767" rx="2.16843" ry="2.03261" fill="#279AF1"/>
<ellipse cx="44.6098" cy="11.3949" rx="2.16843" ry="2.03261" fill="#279AF1"/>
<ellipse cx="44.6098" cy="22.1889" rx="2.16843" ry="2.03261" fill="#279AF1"/>
<ellipse cx="44.6098" cy="32.9828" rx="2.16843" ry="2.03261" fill="#279AF1"/>
<ellipse cx="44.6098" cy="43.7767" rx="2.16843" ry="2.03261" fill="#279AF1"/>
<ellipse cx="56.1255" cy="11.3949" rx="2.16843" ry="2.03261" fill="#279AF1"/>
<ellipse cx="56.1255" cy="22.1889" rx="2.16843" ry="2.03261" fill="#279AF1"/>
<ellipse cx="56.1255" cy="32.9828" rx="2.16843" ry="2.03261" fill="#279AF1"/>
<ellipse cx="56.1255" cy="43.7767" rx="2.16843" ry="2.03261" fill="#279AF1"/>
<ellipse cx="67.6401" cy="11.3949" rx="2.16843" ry="2.03261" fill="#279AF1"/>
<ellipse cx="67.6401" cy="22.1889" rx="2.16843" ry="2.03261" fill="#279AF1"/>
<ellipse cx="67.6401" cy="32.9828" rx="2.16843" ry="2.03261" fill="#279AF1"/>
<ellipse cx="67.6401" cy="43.7767" rx="2.16843" ry="2.03261" fill="#279AF1"/>
<ellipse cx="79.1557" cy="11.3949" rx="2.16843" ry="2.03261" fill="#279AF1"/>
<ellipse cx="79.1557" cy="22.1889" rx="2.16843" ry="2.03261" fill="#279AF1"/>
<ellipse cx="79.1557" cy="32.9828" rx="2.16843" ry="2.03261" fill="#279AF1"/>
<ellipse cx="79.1557" cy="43.7767" rx="2.16843" ry="2.03261" fill="#279AF1"/>
<ellipse cx="90.6684" cy="11.3949" rx="2.16843" ry="2.03261" fill="#279AF1"/>
<ellipse cx="90.6684" cy="22.1889" rx="2.16843" ry="2.03261" fill="#279AF1"/>
<ellipse cx="90.6684" cy="32.9828" rx="2.16843" ry="2.03261" fill="#279AF1"/>
<ellipse cx="90.6684" cy="43.7767" rx="2.16843" ry="2.03261" fill="#279AF1"/>
<ellipse cx="102.184" cy="11.3949" rx="2.16843" ry="2.03261" fill="#279AF1"/>
<ellipse cx="102.184" cy="22.1889" rx="2.16843" ry="2.03261" fill="#279AF1"/>
<ellipse cx="102.184" cy="32.9828" rx="2.16843" ry="2.03261" fill="#279AF1"/>
<ellipse cx="102.184" cy="43.7767" rx="2.16843" ry="2.03261" fill="#279AF1"/>
<path d="M17.626 34.3358C17.626 31.5772 19.8623 29.3408 22.621 29.3408H150.388C153.147 29.3408 155.383 31.5772 155.383 34.3358V109.462C155.383 112.221 153.147 114.457 150.388 114.457H22.621C19.8623 114.457 17.626 112.221 17.626 109.462V34.3358Z" fill="#D1EAFF"/>
<path d="M17.626 42.293H150.388C153.147 42.293 155.383 44.5293 155.383 47.288V109.462C155.383 112.22 153.147 114.457 150.388 114.457H22.621C19.8623 114.457 17.626 112.22 17.626 109.462V42.293Z" fill="white"/>
<rect x="32.1475" y="45.334" width="33.276" height="4.62588" rx="2.31294" fill="#D1EAFF"/>
<rect x="69.9365" y="45.332" width="24.111" height="4.62588" rx="2.31294" fill="#0CCA4A"/>
<rect x="98.5615" y="45.332" width="24.111" height="4.62588" rx="2.31294" fill="#D1EAFF"/>
<rect x="127.418" y="45.5662" width="23.0787" height="4.1576" rx="2.0788" stroke="#BADFFF" stroke-width="0.468281"/>
<ellipse cx="148.05" cy="47.7126" rx="1.128" ry="1.05734" fill="#A3D5FF"/>
<rect x="50.0557" y="58.5488" width="72.8969" height="45.2015" rx="2.4975" fill="#0CCA4A"/>
<rect x="53.5811" y="94.1025" width="34.122" height="3.3042" rx="1.6521" fill="#EBE9FF"/>
<rect x="53.5811" y="88.5527" width="22.701" height="3.3042" rx="1.6521" fill="#EBE9FF"/>
<rect x="68.9492" y="83.2646" width="12.8203" height="3.525" rx="1.7625" transform="rotate(-90 68.9492 83.2646)" fill="#06AF48"/>
<rect x="107.018" y="83.2646" width="12.8203" height="3.525" rx="1.7625" transform="rotate(-90 107.018 83.2646)" fill="#06AF48"/>
<rect x="75.2949" y="83.2646" width="9.38393" height="3.525" rx="1.7625" transform="rotate(-90 75.2949 83.2646)" fill="#06AF48"/>
<rect x="81.6377" y="83.2646" width="21.2791" height="3.525" rx="1.7625" transform="rotate(-90 81.6377 83.2646)" fill="#06AF48"/>
<rect x="87.9834" y="83.2646" width="5.41888" height="3.52499" rx="1.7625" transform="rotate(-90 87.9834 83.2646)" fill="#06AF48"/>
<rect x="100.675" y="83.2646" width="5.41888" height="3.525" rx="1.7625" transform="rotate(-90 100.675 83.2646)" fill="#06AF48"/>
<rect x="62.6035" y="83.2646" width="5.41888" height="3.52499" rx="1.7625" transform="rotate(-90 62.6035 83.2646)" fill="#06AF48"/>
<rect x="94.3291" y="83.2646" width="15.3315" height="3.52499" rx="1.7625" transform="rotate(-90 94.3291 83.2646)" fill="#06AF48"/>
<rect x="100.111" y="92.6494" width="19.317" height="4.75805" rx="2.37902" fill="white"/>
<ellipse cx="89.9561" cy="106.926" rx="1.128" ry="1.05734" fill="#A3D5FF"/>
<ellipse cx="86.5723" cy="106.926" rx="1.128" ry="1.05734" fill="#A3D5FF"/>
<ellipse cx="83.1885" cy="106.926" rx="1.128" ry="1.05735" fill="#A3D5FF"/>
<rect x="22.2754" y="58.5488" width="22.6023" height="3.31837" rx="1.65919" fill="#D1EAFF"/>
<rect x="22.2754" y="64.293" width="16.6113" height="3.31837" rx="1.65919" fill="#D1EAFF"/>
<rect x="22.2754" y="70.0361" width="22.6023" height="3.31837" rx="1.65919" fill="#D1EAFF"/>
<rect x="22.2754" y="75.7803" width="22.6023" height="3.31837" rx="1.65918" fill="#D1EAFF"/>
<rect x="22.2754" y="81.5215" width="18.6537" height="3.31837" rx="1.65918" fill="#D1EAFF"/>
<rect x="22.2754" y="87.2646" width="22.6023" height="3.31837" rx="1.65918" fill="#D1EAFF"/>
<rect x="22.2754" y="93.0088" width="20.8322" height="3.31837" rx="1.65918" fill="#D1EAFF"/>
<rect x="22.2754" y="98.7529" width="22.6023" height="3.31837" rx="1.65919" fill="#D1EAFF"/>
<path d="M92.6357 37.243C92.6357 34.4844 94.8721 32.248 97.6307 32.248H124.019C126.777 32.248 129.014 34.4844 129.014 37.243V42.2928H92.6357V37.243Z" fill="white"/>
<rect width="1.2299" height="4.78293" rx="0.614949" transform="matrix(0.729586 -0.683889 0.729586 0.683889 121.541 36)" fill="#D1EAFF"/>
<rect width="1.2299" height="4.78293" rx="0.614949" transform="matrix(0.729586 0.683889 -0.729586 0.683889 125.03 35.1572)" fill="#D1EAFF"/>
<rect x="95.4561" y="34.8916" width="16.638" height="4.62588" rx="2.31294" fill="#D1EAFF"/>
<path d="M55.1309 37.243C55.1309 34.4844 57.3672 32.248 60.1259 32.248H86.5138C89.2725 32.248 91.5088 34.4844 91.5088 37.243V42.2928H55.1309V37.243Z" fill="white"/>
<rect width="1.2299" height="4.78294" rx="0.614949" transform="matrix(0.729587 -0.683888 0.729587 0.683888 84.0371 36.123)" fill="#D1EAFF"/>
<rect width="1.2299" height="4.78294" rx="0.614949" transform="matrix(0.729587 0.683888 -0.729587 0.683888 87.5264 35.2803)" fill="#D1EAFF"/>
<rect x="57.9512" y="34.8916" width="21.855" height="4.62588" rx="2.31294" fill="#D1EAFF"/>
<path d="M17.626 37.243C17.626 34.4844 19.8623 32.248 22.621 32.248H49.0089C51.7676 32.248 54.0039 34.4844 54.0039 37.243V42.2928H17.626V37.243Z" fill="white"/>
<rect width="1.2299" height="4.78294" rx="0.614949" transform="matrix(0.729587 -0.683888 0.729587 0.683888 46.5225 35.9902)" fill="#D1EAFF"/>
<rect width="1.2299" height="4.78294" rx="0.614949" transform="matrix(0.729587 0.683888 -0.729587 0.683888 50.0117 35.1475)" fill="#D1EAFF"/>
<rect x="20.4434" y="34.8916" width="23.829" height="4.62588" rx="2.31294" fill="#D1EAFF"/>
<ellipse cx="146.924" cy="35.8156" rx="3.807" ry="3.56854" fill="white"/>
<ellipse cx="136.066" cy="35.8156" rx="3.80699" ry="3.56854" fill="white"/>
<rect x="127.321" y="58.5488" width="23.406" height="21.8077" rx="2.4975" fill="#D1EAFF"/>
<path d="M132.957 70.8738C132.027 72.1448 130.298 73.1384 129.015 73.3087C139.66 76.4929 149.505 73.8196 148.96 72.4744C148.5 71.3394 147.907 70.38 145.799 67.2698C144.208 64.9214 141.603 65.9077 139.042 69.0348C137.409 71.0283 135.899 71.8784 135.808 70.38C135.718 68.8816 134.301 69.0348 132.957 70.8738Z" fill="white"/>
<ellipse cx="136.498" cy="65.4302" rx="1.56222" ry="1.46437" fill="white"/>
<rect x="127.321" y="81.9443" width="23.406" height="21.8077" rx="2.4975" fill="#D1EAFF"/>
<path d="M132.957 94.2693C132.027 95.5403 130.298 96.534 129.015 96.7042C139.66 99.8884 149.505 97.2151 148.96 95.8699C148.5 94.735 147.907 93.7755 145.799 90.6653C144.208 88.317 141.603 89.3032 139.042 92.4303C137.409 94.4238 135.899 95.2739 135.808 93.7755C135.718 92.2771 134.301 92.4303 132.957 94.2693Z" fill="white"/>
<ellipse cx="136.498" cy="88.8257" rx="1.56222" ry="1.46437" fill="white"/>
<path fill-rule="evenodd" clip-rule="evenodd" d="M129.744 139.071C131.555 139.071 133.022 137.604 133.022 135.793V125.943C133.022 124.133 131.555 122.665 129.744 122.665H120.856L118.021 118.494C117.959 118.403 117.824 118.403 117.762 118.494L114.926 122.665H105.784C103.973 122.665 102.506 124.133 102.506 125.943V135.793C102.506 137.604 103.973 139.071 105.784 139.071H129.744Z" fill="white"/>
<path fill-rule="evenodd" clip-rule="evenodd" d="M124.047 134.879C124.047 135.569 123.488 136.128 122.798 136.128H107.345C106.655 136.128 106.096 135.569 106.096 134.879V133.17C106.096 132.48 106.655 131.921 107.345 131.921H122.798C123.488 131.921 124.047 132.48 124.047 133.17V134.879Z" fill="#E3E6EE"/>
<path fill-rule="evenodd" clip-rule="evenodd" d="M129.88 128.569C129.88 129.258 129.321 129.817 128.631 129.817H107.129C106.439 129.817 105.88 129.258 105.88 128.569V126.859C105.88 126.17 106.439 125.611 107.129 125.611H128.631C129.321 125.611 129.88 126.17 129.88 126.859V128.569Z" fill="#279AF1"/>
<rect x="99.4804" y="7.21574" width="15.4949" height="9.23312" rx="2.41945" fill="white" stroke="#F2F2F2" stroke-width="0.156094"/>
<path d="M109.577 11.7112C109.578 12.0339 109.498 12.3522 109.342 12.6403C109.158 12.9855 108.875 13.2758 108.525 13.4788C108.175 13.6818 107.772 13.7894 107.36 13.7895C107.016 13.7903 106.676 13.7149 106.369 13.5694L104.882 14.034L105.377 12.6403C105.222 12.3522 105.142 12.0339 105.143 11.7112C105.143 11.3253 105.258 10.947 105.474 10.6188C105.691 10.2906 106 10.0254 106.369 9.85288C106.676 9.70738 107.016 9.63198 107.36 9.63282H107.49C108.034 9.66094 108.548 9.87605 108.933 10.237C109.318 10.5979 109.547 11.0793 109.577 11.5889V11.7112Z" fill="#A3D5FF"/>
<rect x="124.644" width="22.4524" height="21.046" rx="2.4975" fill="white"/>
<path d="M129.821 12.0164C128.892 13.2874 127.163 14.281 125.879 14.4513C136.524 17.6355 146.369 14.9621 145.824 13.617C145.365 12.482 144.771 11.5225 142.664 8.41241C141.073 6.06402 138.468 7.05025 135.906 10.1774C134.273 12.1709 132.764 13.021 132.673 11.5226C132.582 10.0241 131.165 10.1774 129.821 12.0164Z" fill="#279AF1"/>
<ellipse cx="133.362" cy="6.57277" rx="1.56222" ry="1.46437" fill="#279AF1"/>
<rect x="130.204" y="23.1553" width="2.87012" height="0.987597" rx="0.493798" fill="white"/>
<rect x="134.454" y="23.1553" width="2.87013" height="0.987598" rx="0.493799" fill="white"/>
<rect x="138.704" y="23.1553" width="2.87013" height="0.987598" rx="0.493799" fill="white"/>
<rect x="4.5127" y="20.0879" width="33.276" height="34.2315" rx="4.995" fill="#A3D5FF"/>
<rect y="15.8584" width="35.25" height="36.2824" rx="4.995" fill="white"/>
<rect x="3.13965" y="32.2344" width="28.9647" height="2.50393" rx="1.25196" fill="#C7CDDD"/>
<rect x="3.13965" y="36.0137" width="28.9647" height="2.50393" rx="1.25196" fill="#C7CDDD"/>
<rect x="3.13965" y="39.7959" width="28.9647" height="2.50393" rx="1.25196" fill="#C7CDDD"/>
<rect x="12.4619" y="46.0537" width="10.3183" height="3.21583" rx="1.60791" fill="#03BB41"/>
<ellipse cx="17.6079" cy="24.2435" rx="5.87936" ry="5.51109" fill="#279AF1"/>
<ellipse cx="17.6079" cy="24.2435" rx="5.87936" ry="5.51109" fill="#279AF1"/>
<ellipse cx="17.55" cy="23.1934" rx="1.9035" ry="1.78427" fill="white"/>
<path fill-rule="evenodd" clip-rule="evenodd" d="M13.8535 28.4848C14.1235 26.7993 15.6749 25.5068 17.5484 25.5068C19.4502 25.5068 21.0201 26.8386 21.2546 28.5615C20.2519 29.3069 18.9837 29.752 17.6045 29.752C16.1787 29.752 14.8714 29.2762 13.8535 28.4848Z" fill="white"/>
<path d="M144.1 104.384C144.1 102.574 145.567 101.106 147.378 101.106H159.293C161.103 101.106 162.571 102.574 162.571 104.384V115.142C162.571 116.953 161.103 118.42 159.293 118.42H147.378C145.567 118.42 144.1 116.953 144.1 115.142V104.384Z" fill="#0CCA4A"/>
<path d="M158.603 109.13C158.603 108.855 158.38 108.632 158.105 108.632H156.797L155.093 105.822C154.95 105.585 154.646 105.502 154.402 105.634C154.14 105.775 154.05 106.106 154.204 106.361L155.581 108.632H151.065L152.442 106.361C152.596 106.107 152.506 105.775 152.244 105.634C152 105.503 151.696 105.585 151.552 105.822L149.849 108.632H148.541C148.266 108.632 148.043 108.855 148.043 109.13C148.043 109.404 148.266 109.627 148.541 109.627H148.675L149.64 113.716C149.693 113.943 149.907 114.105 150.155 114.105H156.491C156.738 114.105 156.953 113.943 157.006 113.716L157.97 109.627H158.105C158.38 109.627 158.603 109.404 158.603 109.13ZM156.067 113.11H150.578L149.757 109.627H156.888L156.067 113.11Z" fill="white"/>
<rect y="120.403" width="63.1679" height="9.40414" rx="4.70207" fill="white"/>
<path fill-rule="evenodd" clip-rule="evenodd" d="M7.43112 126.848C8.4572 126.848 9.289 126.069 9.289 125.107C9.289 124.145 8.4572 123.365 7.43112 123.365C6.40504 123.365 5.57324 124.145 5.57324 125.107C5.57324 126.069 6.40504 126.848 7.43112 126.848Z" fill="#C7CDDD"/>
<path fill-rule="evenodd" clip-rule="evenodd" d="M11.1475 125.107C11.1475 124.145 11.9272 123.365 12.889 123.365H16.8375C17.7993 123.365 18.579 124.145 18.579 125.107C18.579 126.069 17.7993 126.848 16.8375 126.848H12.889C11.9272 126.848 11.1475 126.069 11.1475 125.107Z" fill="#A3D5FF"/>
<path fill-rule="evenodd" clip-rule="evenodd" d="M22.2939 125.104C22.2939 124.142 23.0736 123.362 24.0355 123.362H31.6997C32.6615 123.362 33.4412 124.142 33.4412 125.104C33.4412 126.066 32.6615 126.845 31.6997 126.845H24.0355C23.0736 126.845 22.2939 126.066 22.2939 125.104Z" fill="#DDEAF3"/>
<path fill-rule="evenodd" clip-rule="evenodd" d="M36.415 125.104C36.415 124.142 37.1947 123.362 38.1565 123.362H43.9629C44.9247 123.362 45.7044 124.142 45.7044 125.104C45.7044 126.066 44.9247 126.845 43.9629 126.845H38.1565C37.1947 126.845 36.415 126.066 36.415 125.104Z" fill="#A3D5FF"/>
<path fill-rule="evenodd" clip-rule="evenodd" d="M48.3047 125.104C48.3047 124.142 49.0844 123.362 50.0462 123.362H55.8526C56.8144 123.362 57.5941 124.142 57.5941 125.104C57.5941 126.066 56.8144 126.845 55.8526 126.845H50.0462C49.0844 126.845 48.3047 126.066 48.3047 125.104Z" fill="#03BB41"/>
</svg>
