<svg width="496" height="214" viewBox="0 0 496 214" fill="none" xmlns="http://www.w3.org/2000/svg">
<ellipse cx="491.54" cy="3.52358" rx="3.52358" ry="3.69384" transform="rotate(90 491.54 3.52358)" fill="#EF4358"/>
<ellipse cx="491.54" cy="55.2023" rx="3.52358" ry="3.69384" transform="rotate(90 491.54 55.2023)" fill="#EF4358"/>
<ellipse cx="491.54" cy="106.882" rx="3.52358" ry="3.69384" transform="rotate(90 491.54 106.882)" fill="#EF4358"/>
<ellipse cx="491.54" cy="158.561" rx="3.52358" ry="3.69384" transform="rotate(90 491.54 158.561)" fill="#EF4358"/>
<ellipse cx="491.54" cy="210.24" rx="3.52358" ry="3.69384" transform="rotate(90 491.54 210.24)" fill="#EF4358"/>
<ellipse cx="437.361" cy="3.52358" rx="3.52358" ry="3.69384" transform="rotate(90 437.361 3.52358)" fill="#EF4358"/>
<ellipse cx="437.361" cy="55.2023" rx="3.52358" ry="3.69384" transform="rotate(90 437.361 55.2023)" fill="#EF4358"/>
<ellipse cx="437.361" cy="106.882" rx="3.52358" ry="3.69384" transform="rotate(90 437.361 106.882)" fill="#EF4358"/>
<ellipse cx="437.361" cy="158.561" rx="3.52358" ry="3.69384" transform="rotate(90 437.361 158.561)" fill="#EF4358"/>
<ellipse cx="437.361" cy="210.24" rx="3.52358" ry="3.69384" transform="rotate(90 437.361 210.24)" fill="#EF4358"/>
<ellipse cx="383.189" cy="3.52358" rx="3.52358" ry="3.69384" transform="rotate(90 383.189 3.52358)" fill="#EF4358"/>
<ellipse cx="383.189" cy="55.2023" rx="3.52358" ry="3.69384" transform="rotate(90 383.189 55.2023)" fill="#EF4358"/>
<ellipse cx="383.189" cy="106.882" rx="3.52358" ry="3.69384" transform="rotate(90 383.189 106.882)" fill="#EF4358"/>
<ellipse cx="383.189" cy="158.561" rx="3.52358" ry="3.69384" transform="rotate(90 383.189 158.561)" fill="#EF4358"/>
<ellipse cx="383.189" cy="210.24" rx="3.52358" ry="3.69384" transform="rotate(90 383.189 210.24)" fill="#EF4358"/>
<ellipse cx="329.009" cy="3.52358" rx="3.52358" ry="3.69384" transform="rotate(90 329.009 3.52358)" fill="#EF4358"/>
<ellipse cx="329.009" cy="55.2023" rx="3.52358" ry="3.69384" transform="rotate(90 329.009 55.2023)" fill="#EF4358"/>
<ellipse cx="329.009" cy="106.882" rx="3.52358" ry="3.69384" transform="rotate(90 329.009 106.882)" fill="#EF4358"/>
<ellipse cx="329.009" cy="158.561" rx="3.52358" ry="3.69384" transform="rotate(90 329.009 158.561)" fill="#EF4358"/>
<ellipse cx="329.009" cy="210.24" rx="3.52358" ry="3.69384" transform="rotate(90 329.009 210.24)" fill="#EF4358"/>
<ellipse cx="274.837" cy="3.52358" rx="3.52358" ry="3.69384" transform="rotate(90 274.837 3.52358)" fill="#EF4358"/>
<ellipse cx="274.837" cy="55.2023" rx="3.52358" ry="3.69384" transform="rotate(90 274.837 55.2023)" fill="#EF4358"/>
<ellipse cx="274.837" cy="106.882" rx="3.52358" ry="3.69384" transform="rotate(90 274.837 106.882)" fill="#EF4358"/>
<ellipse cx="274.837" cy="158.561" rx="3.52358" ry="3.69384" transform="rotate(90 274.837 158.561)" fill="#EF4358"/>
<ellipse cx="274.837" cy="210.24" rx="3.52358" ry="3.69384" transform="rotate(90 274.837 210.24)" fill="#EF4358"/>
<ellipse cx="220.657" cy="3.52358" rx="3.52358" ry="3.69384" transform="rotate(90 220.657 3.52358)" fill="#EF4358"/>
<ellipse cx="220.657" cy="55.2023" rx="3.52358" ry="3.69384" transform="rotate(90 220.657 55.2023)" fill="#EF4358"/>
<ellipse cx="220.657" cy="106.882" rx="3.52358" ry="3.69384" transform="rotate(90 220.657 106.882)" fill="#EF4358"/>
<ellipse cx="220.657" cy="158.561" rx="3.52358" ry="3.69384" transform="rotate(90 220.657 158.561)" fill="#EF4358"/>
<ellipse cx="220.657" cy="210.24" rx="3.52358" ry="3.69384" transform="rotate(90 220.657 210.24)" fill="#EF4358"/>
<ellipse cx="166.486" cy="3.52358" rx="3.52358" ry="3.69384" transform="rotate(90 166.486 3.52358)" fill="#EF4358"/>
<ellipse cx="166.486" cy="55.2023" rx="3.52358" ry="3.69384" transform="rotate(90 166.486 55.2023)" fill="#EF4358"/>
<ellipse cx="166.486" cy="106.882" rx="3.52358" ry="3.69384" transform="rotate(90 166.486 106.882)" fill="#EF4358"/>
<ellipse cx="166.486" cy="158.561" rx="3.52358" ry="3.69384" transform="rotate(90 166.486 158.561)" fill="#EF4358"/>
<ellipse cx="166.486" cy="210.24" rx="3.52358" ry="3.69384" transform="rotate(90 166.486 210.24)" fill="#EF4358"/>
<ellipse cx="112.306" cy="3.52358" rx="3.52358" ry="3.69384" transform="rotate(90 112.306 3.52358)" fill="#EF4358"/>
<ellipse cx="112.306" cy="55.2023" rx="3.52358" ry="3.69384" transform="rotate(90 112.306 55.2023)" fill="#EF4358"/>
<ellipse cx="112.306" cy="106.882" rx="3.52358" ry="3.69384" transform="rotate(90 112.306 106.882)" fill="#EF4358"/>
<ellipse cx="112.306" cy="158.561" rx="3.52358" ry="3.69384" transform="rotate(90 112.306 158.561)" fill="#EF4358"/>
<ellipse cx="112.306" cy="210.24" rx="3.52358" ry="3.69384" transform="rotate(90 112.306 210.24)" fill="#EF4358"/>
<ellipse cx="58.1301" cy="3.52358" rx="3.52358" ry="3.69384" transform="rotate(90 58.1301 3.52358)" fill="#EF4358"/>
<ellipse cx="58.1301" cy="55.2023" rx="3.52358" ry="3.69384" transform="rotate(90 58.1301 55.2023)" fill="#EF4358"/>
<ellipse cx="58.1301" cy="106.882" rx="3.52358" ry="3.69384" transform="rotate(90 58.1301 106.882)" fill="#EF4358"/>
<ellipse cx="58.1301" cy="158.561" rx="3.52358" ry="3.69384" transform="rotate(90 58.1301 158.561)" fill="#EF4358"/>
<ellipse cx="58.1301" cy="210.24" rx="3.52358" ry="3.69384" transform="rotate(90 58.1301 210.24)" fill="#EF4358"/>
<ellipse cx="3.9505" cy="3.52358" rx="3.52358" ry="3.69384" transform="rotate(90 3.9505 3.52358)" fill="#EF4358"/>
<ellipse cx="3.9505" cy="55.2023" rx="3.52358" ry="3.69384" transform="rotate(90 3.9505 55.2023)" fill="#EF4358"/>
<ellipse cx="3.9505" cy="106.882" rx="3.52358" ry="3.69384" transform="rotate(90 3.9505 106.882)" fill="#EF4358"/>
<ellipse cx="3.9505" cy="158.561" rx="3.52358" ry="3.69384" transform="rotate(90 3.9505 158.561)" fill="#EF4358"/>
<ellipse cx="3.9505" cy="210.24" rx="3.52358" ry="3.69384" transform="rotate(90 3.9505 210.24)" fill="#EF4358"/>
</svg>
