<svg width="496" height="214" viewBox="0 0 496 214" fill="none" xmlns="http://www.w3.org/2000/svg">
<ellipse cx="491.884" cy="3.72182" rx="3.52358" ry="3.69384" transform="rotate(90 491.884 3.72182)" fill="#70C217"/>
<ellipse cx="491.884" cy="55.4005" rx="3.52358" ry="3.69384" transform="rotate(90 491.884 55.4005)" fill="#70C217"/>
<ellipse cx="491.884" cy="107.08" rx="3.52358" ry="3.69384" transform="rotate(90 491.884 107.08)" fill="#70C217"/>
<ellipse cx="491.884" cy="158.759" rx="3.52358" ry="3.69384" transform="rotate(90 491.884 158.759)" fill="#70C217"/>
<ellipse cx="491.884" cy="210.439" rx="3.52358" ry="3.69384" transform="rotate(90 491.884 210.439)" fill="#70C217"/>
<ellipse cx="437.705" cy="3.72182" rx="3.52358" ry="3.69384" transform="rotate(90 437.705 3.72182)" fill="#70C217"/>
<ellipse cx="437.705" cy="55.4005" rx="3.52358" ry="3.69384" transform="rotate(90 437.705 55.4005)" fill="#70C217"/>
<ellipse cx="437.705" cy="107.08" rx="3.52358" ry="3.69384" transform="rotate(90 437.705 107.08)" fill="#70C217"/>
<ellipse cx="437.705" cy="158.759" rx="3.52358" ry="3.69384" transform="rotate(90 437.705 158.759)" fill="#70C217"/>
<ellipse cx="437.705" cy="210.439" rx="3.52358" ry="3.69384" transform="rotate(90 437.705 210.439)" fill="#70C217"/>
<ellipse cx="383.533" cy="3.72182" rx="3.52358" ry="3.69384" transform="rotate(90 383.533 3.72182)" fill="#70C217"/>
<ellipse cx="383.533" cy="55.4005" rx="3.52358" ry="3.69384" transform="rotate(90 383.533 55.4005)" fill="#70C217"/>
<ellipse cx="383.533" cy="107.08" rx="3.52358" ry="3.69384" transform="rotate(90 383.533 107.08)" fill="#70C217"/>
<ellipse cx="383.533" cy="158.759" rx="3.52358" ry="3.69384" transform="rotate(90 383.533 158.759)" fill="#70C217"/>
<ellipse cx="383.533" cy="210.439" rx="3.52358" ry="3.69384" transform="rotate(90 383.533 210.439)" fill="#70C217"/>
<ellipse cx="329.353" cy="3.72182" rx="3.52358" ry="3.69384" transform="rotate(90 329.353 3.72182)" fill="#70C217"/>
<ellipse cx="329.353" cy="55.4005" rx="3.52358" ry="3.69384" transform="rotate(90 329.353 55.4005)" fill="#70C217"/>
<ellipse cx="329.353" cy="107.08" rx="3.52358" ry="3.69384" transform="rotate(90 329.353 107.08)" fill="#70C217"/>
<ellipse cx="329.353" cy="158.759" rx="3.52358" ry="3.69384" transform="rotate(90 329.353 158.759)" fill="#70C217"/>
<ellipse cx="329.353" cy="210.439" rx="3.52358" ry="3.69384" transform="rotate(90 329.353 210.439)" fill="#70C217"/>
<ellipse cx="275.181" cy="3.72182" rx="3.52358" ry="3.69384" transform="rotate(90 275.181 3.72182)" fill="#70C217"/>
<ellipse cx="275.181" cy="55.4005" rx="3.52358" ry="3.69384" transform="rotate(90 275.181 55.4005)" fill="#70C217"/>
<ellipse cx="275.181" cy="107.08" rx="3.52358" ry="3.69384" transform="rotate(90 275.181 107.08)" fill="#70C217"/>
<ellipse cx="275.181" cy="158.759" rx="3.52358" ry="3.69384" transform="rotate(90 275.181 158.759)" fill="#70C217"/>
<ellipse cx="275.181" cy="210.439" rx="3.52358" ry="3.69384" transform="rotate(90 275.181 210.439)" fill="#70C217"/>
<ellipse cx="221.001" cy="3.72182" rx="3.52358" ry="3.69384" transform="rotate(90 221.001 3.72182)" fill="#70C217"/>
<ellipse cx="221.001" cy="55.4005" rx="3.52358" ry="3.69384" transform="rotate(90 221.001 55.4005)" fill="#70C217"/>
<ellipse cx="221.001" cy="107.08" rx="3.52358" ry="3.69384" transform="rotate(90 221.001 107.08)" fill="#70C217"/>
<ellipse cx="221.001" cy="158.759" rx="3.52358" ry="3.69384" transform="rotate(90 221.001 158.759)" fill="#70C217"/>
<ellipse cx="221.001" cy="210.439" rx="3.52358" ry="3.69384" transform="rotate(90 221.001 210.439)" fill="#70C217"/>
<ellipse cx="166.83" cy="3.72182" rx="3.52358" ry="3.69384" transform="rotate(90 166.83 3.72182)" fill="#70C217"/>
<ellipse cx="166.83" cy="55.4005" rx="3.52358" ry="3.69384" transform="rotate(90 166.83 55.4005)" fill="#70C217"/>
<ellipse cx="166.83" cy="107.08" rx="3.52358" ry="3.69384" transform="rotate(90 166.83 107.08)" fill="#70C217"/>
<ellipse cx="166.83" cy="158.759" rx="3.52358" ry="3.69384" transform="rotate(90 166.83 158.759)" fill="#70C217"/>
<ellipse cx="166.83" cy="210.439" rx="3.52358" ry="3.69384" transform="rotate(90 166.83 210.439)" fill="#70C217"/>
<ellipse cx="112.65" cy="3.72182" rx="3.52358" ry="3.69384" transform="rotate(90 112.65 3.72182)" fill="#70C217"/>
<ellipse cx="112.65" cy="55.4005" rx="3.52358" ry="3.69384" transform="rotate(90 112.65 55.4005)" fill="#70C217"/>
<ellipse cx="112.65" cy="107.08" rx="3.52358" ry="3.69384" transform="rotate(90 112.65 107.08)" fill="#70C217"/>
<ellipse cx="112.65" cy="158.759" rx="3.52358" ry="3.69384" transform="rotate(90 112.65 158.759)" fill="#70C217"/>
<ellipse cx="112.65" cy="210.439" rx="3.52358" ry="3.69384" transform="rotate(90 112.65 210.439)" fill="#70C217"/>
<ellipse cx="58.4741" cy="3.72182" rx="3.52358" ry="3.69384" transform="rotate(90 58.4741 3.72182)" fill="#70C217"/>
<ellipse cx="58.4741" cy="55.4005" rx="3.52358" ry="3.69384" transform="rotate(90 58.4741 55.4005)" fill="#70C217"/>
<ellipse cx="58.4741" cy="107.08" rx="3.52358" ry="3.69384" transform="rotate(90 58.4741 107.08)" fill="#70C217"/>
<ellipse cx="58.4741" cy="158.759" rx="3.52358" ry="3.69384" transform="rotate(90 58.4741 158.759)" fill="#70C217"/>
<ellipse cx="58.4741" cy="210.439" rx="3.52358" ry="3.69384" transform="rotate(90 58.4741 210.439)" fill="#70C217"/>
<ellipse cx="4.2945" cy="3.72182" rx="3.52358" ry="3.69384" transform="rotate(90 4.2945 3.72182)" fill="#70C217"/>
<ellipse cx="4.2945" cy="55.4005" rx="3.52358" ry="3.69384" transform="rotate(90 4.2945 55.4005)" fill="#70C217"/>
<ellipse cx="4.29449" cy="107.08" rx="3.52358" ry="3.69384" transform="rotate(90 4.29449 107.08)" fill="#70C217"/>
<ellipse cx="4.29449" cy="158.759" rx="3.52358" ry="3.69384" transform="rotate(90 4.29449 158.759)" fill="#70C217"/>
<ellipse cx="4.29449" cy="210.439" rx="3.52358" ry="3.69384" transform="rotate(90 4.29449 210.439)" fill="#70C217"/>
</svg>
