<svg width="129" height="20" viewBox="0 0 129 20" fill="none" xmlns="http://www.w3.org/2000/svg">
<path d="M7.55503 19.668C5.52303 19.668 3.84303 19.196 2.51503 18.252C1.20303 17.292 0.491031 15.892 0.379031 14.052H6.04303C6.12303 15.028 6.55503 15.516 7.33903 15.516C7.62703 15.516 7.86703 15.452 8.05903 15.324C8.26703 15.18 8.37103 14.964 8.37103 14.676C8.37103 14.276 8.15503 13.956 7.72303 13.716C7.29103 13.46 6.61903 13.172 5.70703 12.852C4.61903 12.468 3.71503 12.092 2.99503 11.724C2.29103 11.356 1.68303 10.82 1.17103 10.116C0.659031 9.412 0.411031 8.508 0.427031 7.404C0.427031 6.3 0.707031 5.364 1.26703 4.596C1.84303 3.812 2.61903 3.22 3.59503 2.82C4.58703 2.42 5.69903 2.22 6.93103 2.22C9.01103 2.22 10.659 2.7 11.875 3.66C13.107 4.62 13.755 5.972 13.819 7.716H8.08303C8.06703 7.236 7.94703 6.892 7.72303 6.684C7.49903 6.476 7.22703 6.372 6.90703 6.372C6.68303 6.372 6.49903 6.452 6.35503 6.612C6.21103 6.756 6.13903 6.964 6.13903 7.236C6.13903 7.62 6.34703 7.94 6.76303 8.196C7.19503 8.436 7.87503 8.732 8.80303 9.084C9.87503 9.484 10.755 9.868 11.443 10.236C12.147 10.604 12.755 11.116 13.267 11.772C13.779 12.428 14.035 13.252 14.035 14.244C14.035 15.284 13.779 16.22 13.267 17.052C12.755 17.868 12.011 18.508 11.035 18.972C10.059 19.436 8.89903 19.668 7.55503 19.668ZM24.331 14.964V19.5H22.315C18.603 19.5 16.747 17.652 16.747 13.956V10.404H15.067V5.964H16.747V2.7H22.075V5.964H24.283V10.404H22.075V14.052C22.075 14.372 22.147 14.604 22.291 14.748C22.451 14.892 22.707 14.964 23.059 14.964H24.331ZM32.7922 19.668C31.4322 19.668 30.2082 19.388 29.1202 18.828C28.0322 18.268 27.1762 17.468 26.5522 16.428C25.9442 15.372 25.6402 14.14 25.6402 12.732C25.6402 11.324 25.9442 10.1 26.5522 9.06C27.1762 8.004 28.0322 7.196 29.1202 6.636C30.2082 6.076 31.4322 5.796 32.7922 5.796C34.1522 5.796 35.3762 6.076 36.4642 6.636C37.5522 7.196 38.4002 8.004 39.0082 9.06C39.6322 10.1 39.9442 11.324 39.9442 12.732C39.9442 14.14 39.6322 15.372 39.0082 16.428C38.4002 17.468 37.5522 18.268 36.4642 18.828C35.3762 19.388 34.1522 19.668 32.7922 19.668ZM32.7922 15.06C33.2882 15.06 33.7042 14.868 34.0402 14.484C34.3762 14.084 34.5442 13.5 34.5442 12.732C34.5442 11.964 34.3762 11.388 34.0402 11.004C33.7042 10.604 33.2882 10.404 32.7922 10.404C32.2962 10.404 31.8802 10.604 31.5442 11.004C31.2082 11.388 31.0402 11.964 31.0402 12.732C31.0402 13.5 31.2002 14.084 31.5202 14.484C31.8562 14.868 32.2802 15.06 32.7922 15.06ZM46.946 8.46C47.49 7.676 48.154 7.052 48.938 6.588C49.722 6.108 50.538 5.868 51.386 5.868V11.556H49.874C48.866 11.556 48.122 11.732 47.642 12.084C47.178 12.436 46.946 13.06 46.946 13.956V19.5H41.618V5.964H46.946V8.46ZM65.9251 12.612C65.9251 12.98 65.9011 13.332 65.8531 13.668H57.2851C57.3651 14.836 57.8531 15.42 58.7491 15.42C59.3251 15.42 59.7411 15.156 59.9971 14.628H65.6371C65.4451 15.588 65.0371 16.452 64.4131 17.22C63.8051 17.972 63.0291 18.572 62.0851 19.02C61.1571 19.452 60.1331 19.668 59.0131 19.668C57.6691 19.668 56.4691 19.388 55.4131 18.828C54.3731 18.268 53.5571 17.468 52.9651 16.428C52.3891 15.372 52.1011 14.14 52.1011 12.732C52.1011 11.324 52.3891 10.1 52.9651 9.06C53.5571 8.004 54.3731 7.196 55.4131 6.636C56.4691 6.076 57.6691 5.796 59.0131 5.796C60.3571 5.796 61.5491 6.076 62.5891 6.636C63.6451 7.18 64.4611 7.964 65.0371 8.988C65.6291 10.012 65.9251 11.22 65.9251 12.612ZM60.5251 11.34C60.5251 10.892 60.3811 10.556 60.0931 10.332C59.8051 10.092 59.4451 9.972 59.0131 9.972C58.0691 9.972 57.5171 10.428 57.3571 11.34H60.5251ZM75.4102 5.004C75.1222 4.972 74.9222 4.956 74.8102 4.956C74.4102 4.956 74.1062 5.036 73.8982 5.196C73.6902 5.34 73.5462 5.596 73.4662 5.964H75.4102V10.404H73.4182V19.5H68.0902V10.404H66.6502V5.964H68.0902C68.1222 4.204 68.6742 2.844 69.7462 1.884C70.8342 0.908 72.3542 0.42 74.3062 0.42C74.5302 0.42 74.8982 0.435999 75.4102 0.467999V5.004ZM82.1725 8.46C82.7165 7.676 83.3805 7.052 84.1645 6.588C84.9485 6.108 85.7645 5.868 86.6125 5.868V11.556H85.1005C84.0925 11.556 83.3485 11.732 82.8685 12.084C82.4045 12.436 82.1725 13.06 82.1725 13.956V19.5H76.8445V5.964H82.1725V8.46ZM94.4797 19.668C93.1197 19.668 91.8957 19.388 90.8077 18.828C89.7197 18.268 88.8637 17.468 88.2397 16.428C87.6317 15.372 87.3277 14.14 87.3277 12.732C87.3277 11.324 87.6317 10.1 88.2397 9.06C88.8637 8.004 89.7197 7.196 90.8077 6.636C91.8957 6.076 93.1197 5.796 94.4797 5.796C95.8397 5.796 97.0637 6.076 98.1517 6.636C99.2397 7.196 100.088 8.004 100.696 9.06C101.32 10.1 101.632 11.324 101.632 12.732C101.632 14.14 101.32 15.372 100.696 16.428C100.088 17.468 99.2397 18.268 98.1517 18.828C97.0637 19.388 95.8397 19.668 94.4797 19.668ZM94.4797 15.06C94.9757 15.06 95.3917 14.868 95.7277 14.484C96.0637 14.084 96.2317 13.5 96.2317 12.732C96.2317 11.964 96.0637 11.388 95.7277 11.004C95.3917 10.604 94.9757 10.404 94.4797 10.404C93.9837 10.404 93.5677 10.604 93.2317 11.004C92.8957 11.388 92.7277 11.964 92.7277 12.732C92.7277 13.5 92.8877 14.084 93.2077 14.484C93.5437 14.868 93.9677 15.06 94.4797 15.06ZM112.785 5.868C114.337 5.868 115.545 6.388 116.409 7.428C117.289 8.468 117.729 9.876 117.729 11.652V19.5H112.425V12.324C112.425 11.684 112.249 11.18 111.897 10.812C111.561 10.428 111.105 10.236 110.529 10.236C109.937 10.236 109.473 10.428 109.137 10.812C108.801 11.18 108.633 11.684 108.633 12.324V19.5H103.305V5.964H108.633V8.028C109.049 7.388 109.601 6.868 110.289 6.468C110.993 6.068 111.825 5.868 112.785 5.868ZM128.464 14.964V19.5H126.448C122.736 19.5 120.88 17.652 120.88 13.956V10.404H119.2V5.964H120.88V2.7H126.208V5.964H128.416V10.404H126.208V14.052C126.208 14.372 126.28 14.604 126.424 14.748C126.584 14.892 126.84 14.964 127.192 14.964H128.464Z" fill="#0085FF"/>
</svg>
