<svg width="21" height="20" viewBox="0 0 21 20" fill="none" xmlns="http://www.w3.org/2000/svg">
<g clip-path="url(#clip0_2647_42177)">
<path d="M10.5135 0C13.9268 0 16.7037 2.6446 16.7037 5.8954C16.7037 8.0994 15.4306 10.0274 13.5799 11.0196C17.3402 12.1766 20.117 15.3172 20.4639 19.229C20.5796 20.2204 18.6125 20.2759 18.5551 19.3392C18.1498 15.4274 14.6209 12.4524 10.5135 12.4524C6.34799 12.4524 2.87732 15.4274 2.47202 19.3392C2.35635 20.2759 0.389237 20.2204 0.504905 19.229C0.910142 15.372 3.68683 12.1766 7.38892 11.0196C5.53747 10.0282 4.26517 8.0992 4.26517 5.8954C4.26517 2.6446 7.10017 0 10.5135 0ZM10.5135 1.87344C8.14198 1.87344 6.23224 3.6914 6.23224 5.89524C6.23224 8.15384 8.14109 9.97264 10.5135 9.97264C12.8277 9.97264 14.7364 8.15468 14.7364 5.89524C14.7364 3.69124 12.8275 1.87344 10.5135 1.87344Z" fill="white"/>
</g>
<defs>
<clipPath id="clip0_2647_42177">
<rect width="20" height="20" fill="white" transform="translate(0.5)"/>
</clipPath>
</defs>
</svg>
