<svg width="25" height="24" viewBox="0 0 25 24" fill="none" xmlns="http://www.w3.org/2000/svg">
<g clip-path="url(#clip0_2647_42178)">
<path d="M23.9736 5.84792C23.5186 5.29198 22.8109 4.95408 22.0785 4.95408H6.69066L6.21097 3.16642C5.93262 2.12723 4.97323 1.40234 3.86082 1.40234H1.28372C0.854361 1.40234 0.5 1.74024 0.5 2.15178C0.5 2.56235 0.853351 2.90121 1.28372 2.90121H3.86082C4.23985 2.90121 4.56854 3.14284 4.6692 3.50528L7.75167 15.2489C8.03003 16.2881 8.98941 17.013 10.1018 17.013H20.1833C21.2947 17.013 22.2808 16.2881 22.5335 15.2489L24.4286 7.80651C24.6053 7.12881 24.4543 6.40393 23.9736 5.84799L23.9736 5.84792ZM22.8879 7.46663L20.9928 14.909C20.8921 15.2715 20.5634 15.5131 20.1844 15.5131H10.1018C9.72282 15.5131 9.39413 15.2715 9.29347 14.909L7.09533 6.47668H22.0796C22.3323 6.47668 22.585 6.59749 22.737 6.79099C22.888 6.98354 22.963 7.22517 22.888 7.4668L22.8879 7.46663Z" fill="white"/>
<path d="M10.6332 17.9778C9.19316 17.9778 8.00586 19.1132 8.00586 20.4902C8.00586 21.8672 9.19326 23.0027 10.6332 23.0027C12.0733 23.0036 13.2606 21.8682 13.2606 20.491C13.2606 19.1137 12.0732 17.9775 10.6332 17.9775V17.9778ZM10.6332 21.4814C10.0519 21.4814 9.59685 21.0463 9.59685 20.4903C9.59685 19.9344 10.0519 19.4993 10.6332 19.4993C11.2146 19.4993 11.6696 19.9344 11.6696 20.4903C11.6687 21.0227 11.189 21.4814 10.6332 21.4814Z" fill="white"/>
<path d="M19.325 17.9775C17.8849 17.9775 16.6976 19.113 16.6976 20.49C16.6976 21.867 17.885 23.0024 19.325 23.0024C20.765 23.0024 21.9524 21.867 21.9524 20.49C21.9277 19.1138 20.765 17.9775 19.325 17.9775ZM19.325 21.4811C18.7436 21.4811 18.2886 21.046 18.2886 20.4901C18.2886 19.9341 18.7436 19.499 19.325 19.499C19.9064 19.499 20.3614 19.9341 20.3614 20.4901C20.3614 21.0224 19.8807 21.4811 19.325 21.4811Z" fill="white"/>
</g>
<defs>
<clipPath id="clip0_2647_42178">
<rect width="24" height="24" fill="white" transform="translate(0.5)"/>
</clipPath>
</defs>
</svg>
