<svg width="19" height="18" viewBox="0 0 19 18" fill="none" xmlns="http://www.w3.org/2000/svg">
<g id="heart-outline">
<path id="Vector" d="M9.41777 15.4326L9.35221 15.3757L8.30836 14.4695L9.41777 15.4326ZM9.41777 15.4326L9.48333 15.3757M9.41777 15.4326L9.48333 15.3757M9.48333 15.3757L10.5272 14.4695L9.48333 15.3757ZM9.41777 3.98113C10.2218 3.13456 11.4153 2.6002 12.6578 2.6002C14.926 2.6002 16.7178 4.29526 16.7178 6.47676C16.7178 7.80555 16.0886 9.00575 15.0062 10.2686C13.9248 11.5304 12.3792 12.8678 10.5273 14.4693L9.41777 3.98113ZM9.41777 3.98113C8.61378 3.13456 7.4202 2.6002 6.17777 2.6002C3.90959 2.6002 2.11777 4.29526 2.11777 6.47676C2.11777 7.80555 2.74697 9.00575 3.82934 10.2686C4.91076 11.5304 6.45632 12.8678 8.30821 14.4693L9.41777 3.98113ZM9.42442 13.3019L9.42434 13.3018L9.42076 13.3052L9.41457 13.3111L9.40408 13.302L9.40401 13.302C7.69218 11.8206 6.27763 10.5962 5.29013 9.49477C4.30125 8.39182 3.75777 7.43038 3.75777 6.47676C3.75777 5.16311 4.78848 4.17349 6.17777 4.17349C7.25051 4.17349 8.29102 4.83962 8.6556 5.73181L8.68101 5.79398H8.74817H10.0874H10.1545L10.1799 5.73181C10.5445 4.83962 11.585 4.17349 12.6578 4.17349C14.0471 4.17349 15.0778 5.16311 15.0778 6.47676C15.0778 7.43037 14.5343 8.3918 13.5445 9.49474C12.5562 10.5961 11.1398 11.8206 9.42442 13.3019Z" fill="#1C222B" stroke="#1C222B" stroke-width="0.2"/>
</g>
</svg>
