<svg width="25" height="24" viewBox="0 0 25 24" fill="none" xmlns="http://www.w3.org/2000/svg">
<g clip-path="url(#clip0_2647_42176)">
<path d="M12.4995 22.8004C12.2794 22.8004 12.0594 22.7309 11.8762 22.5918L11.3452 22.1887C6.46842 18.4931 3.52516 16.2619 1.81184 13.285C0.169204 10.4404 0.366523 8.19352 0.819424 6.81042C1.37169 5.12951 2.61398 3.77677 4.32051 3.00101C5.19792 2.60337 6.15199 2.40039 7.15291 2.40039C9.26974 2.40039 11.2261 3.28325 12.4997 4.73889C13.7732 3.28325 15.7282 2.40039 17.8465 2.40039C18.8474 2.40039 19.8 2.60199 20.6775 2.99962C22.384 3.77542 23.6277 5.12681 24.18 6.80903C24.6343 8.191 24.8302 10.4376 23.1875 13.2836C21.4725 16.2602 18.5251 18.4946 13.6425 22.1955L13.1243 22.5917C12.9397 22.7307 12.7195 22.8004 12.4995 22.8004ZM7.15269 4.39683C6.4485 4.39683 5.78407 4.53586 5.17641 4.81116C3.99234 5.3492 3.13339 6.27516 2.7586 7.42076C2.28582 8.85975 2.57261 10.549 3.58488 12.3036C5.08696 14.9132 7.72499 16.9224 12.4979 20.5414C17.2711 16.9238 19.9091 14.9122 21.4109 12.3051C22.4246 10.5491 22.7099 8.85986 22.2386 7.42076C21.8623 6.27655 21.0034 5.3492 19.8193 4.81116C19.2131 4.53588 18.5487 4.39683 17.8445 4.39683C15.9321 4.39683 14.1547 5.43679 13.422 6.98419C13.2558 7.33733 12.8938 7.56256 12.4977 7.56256C12.1001 7.56256 11.741 7.33733 11.5734 6.98419C10.8423 5.43676 9.06508 4.39683 7.15269 4.39683Z" fill="white"/>
</g>
<defs>
<clipPath id="clip0_2647_42176">
<rect width="24" height="24" fill="white" transform="translate(0.5)"/>
</clipPath>
</defs>
</svg>
